<svg width="245" height="228" viewBox="0 0 245 228" fill="none" xmlns="http://www.w3.org/2000/svg">
<path d="M122.9 214.65C185.86 214.65 236.9 168.58 236.9 111.75C236.9 54.92 185.86 8.85001 122.9 8.85001C59.9395 8.85001 8.89999 54.92 8.89999 111.75C8.89999 168.58 59.9395 214.65 122.9 214.65Z" fill="#8FE3F9"/>
<path d="M122.9 214.65C185.86 214.65 236.9 168.58 236.9 111.75C236.9 54.92 185.86 8.85001 122.9 8.85001C59.9395 8.85001 8.89999 54.92 8.89999 111.75C8.89999 168.58 59.9395 214.65 122.9 214.65Z" fill="#8FE3F9"/>
<path d="M125.9 212.65C151.95 212.65 175.95 205 195.15 192.15L189.9 179.8C178.9 153.85 152.8 136.9 123.85 136.9C94.9 136.9 68.8 153.85 57.8 179.8L53.5 190C73.15 204.15 98.4 212.65 125.9 212.65Z" fill="#B2EBF9"/>
<path d="M122.85 103.15L101.05 135.15L117.5 157.05C120.2 160.65 125.65 160.65 128.35 157.05L144.65 135.15L122.85 103.15Z" fill="#A4E0EA"/>
<path d="M122.9 202.65C62.15 202.65 12.55 159.8 9.10001 105.75C8.95001 107.75 8.89999 109.75 8.89999 111.75C8.89999 168.55 59.95 214.65 122.9 214.65C185.85 214.65 236.9 168.6 236.9 111.75C236.9 109.75 236.85 107.75 236.7 105.75C233.25 159.8 183.6 202.65 122.9 202.65Z" fill="#7AD1E5"/>
<path d="M191.3 182.05C172.25 194.95 148.55 202.65 122.9 202.65C97.9 202.65 74.8 195.4 56.05 183.1L53.55 189.25C73.25 203.85 98.45 212.65 125.95 212.65C150.8 212.65 173.8 205.45 192.55 193.25C193.45 192.65 194.3 192 195.2 191.35L191.3 182.05Z" fill="#A4E0EA"/>
<path d="M6.10001 112.1C9.30001 118.65 13.6 124.75 19 130.2C45.15 156.35 87.6 156.35 113.75 130.2C135.65 108.3 139.2 75.05 124.5 49.45" fill="#7AD1E5"/>
<path d="M236.5 119.9C224.5 137.95 204 149.8 180.7 149.8C143.7 149.8 113.7 119.8 113.7 82.8C113.7 66.3 119.65 51.2 129.55 39.5" fill="#7AD1E5"/>
<path d="M122.9 214.65C185.86 214.65 236.9 168.58 236.9 111.75C236.9 54.92 185.86 8.85001 122.9 8.85001C59.9395 8.85001 8.89999 54.92 8.89999 111.75C8.89999 168.58 59.9395 214.65 122.9 214.65Z" stroke="#413D51" stroke-width="16" stroke-miterlimit="10" stroke-linecap="round" stroke-linejoin="round"/>
<path d="M122.85 89.15L101.05 121.15L122.95 150.3L144.7 121.15L122.85 89.15Z" fill="#413D51"/>
<path d="M122.85 89.15L101.05 121.15L122.95 150.3L144.7 121.15L122.85 89.15Z" stroke="#413D51" stroke-width="16" stroke-miterlimit="10" stroke-linecap="round" stroke-linejoin="round"/>
<path d="M172.35 19.95C157.35 12.95 140.3 9 122.35 9C104.4 9 87.35 12.95 72.35 19.95V90H172.35V19.95Z" fill="#413D51"/>
<path d="M178.75 26.9505L233.1 25.3005C225.25 44.9505 224.2 74.5005 231.05 106.801C222.35 125.201 203.85 138.251 182.1 138.901C151.2 139.851 125.35 115.55 124.45 84.6005C123.5 53.7005 147.8 27.9005 178.75 26.9505Z" fill="#413D51"/>
<path d="M178.75 26.9505L233.1 25.3005C225.25 44.9505 224.2 74.5005 231.05 106.801C222.35 125.201 203.85 138.251 182.1 138.901C151.2 139.851 125.35 115.55 124.45 84.6005C123.5 53.7005 147.8 27.9005 178.75 26.9505Z" stroke="#413D51" stroke-width="16" stroke-miterlimit="10" stroke-linecap="round" stroke-linejoin="round"/>
<path d="M180.7 138.85C211.628 138.85 236.7 113.778 236.7 82.8505C236.7 51.9225 211.628 26.8505 180.7 26.8505C149.773 26.8505 124.7 51.9225 124.7 82.8505C124.7 113.778 149.773 138.85 180.7 138.85Z" fill="#F7E8AD"/>
<path d="M180.7 138.85C211.628 138.85 236.7 113.778 236.7 82.8505C236.7 51.9225 211.628 26.8505 180.7 26.8505C149.773 26.8505 124.7 51.9225 124.7 82.8505C124.7 113.778 149.773 138.85 180.7 138.85Z" fill="#F7E8AD"/>
<path d="M220.3 43.2505C209.55 32.5005 195.45 27.0505 181.35 26.8505C191.95 28.9005 202.1 34.0005 210.3 42.2505C232.15 64.1005 232.15 99.5505 210.3 121.451C199.2 132.55 184.6 138 170.1 137.85C187.75 141.25 206.65 136.101 220.3 122.451C242.15 100.55 242.15 65.1005 220.3 43.2505Z" fill="#F7D6A1"/>
<path opacity="0.7" d="M197.261 112.761C213.663 96.3595 213.568 69.6715 197.049 53.1525C180.53 36.6335 153.842 36.5385 137.44 52.9405C121.038 69.3425 121.133 96.03 137.652 112.549C154.171 129.068 180.859 129.163 197.261 112.761Z" fill="white"/>
<path d="M227.7 56.3005C226.15 54.3005 223.15 48.8005 221.3 46.9505C199.3 25.2505 163.85 25.4505 142.15 47.5005C137.85 51.8505 134.4 56.7505 131.85 62.0005C162.7 51.1505 196.5 53.7505 227.7 56.3005Z" fill="#EFCA92"/>
<path d="M180.7 138.85C211.628 138.85 236.7 113.778 236.7 82.8505C236.7 51.9225 211.628 26.8505 180.7 26.8505C149.773 26.8505 124.7 51.9225 124.7 82.8505C124.7 113.778 149.773 138.85 180.7 138.85Z" stroke="#413D51" stroke-width="16" stroke-miterlimit="10" stroke-linecap="round" stroke-linejoin="round"/>
<path d="M180.7 138.85C211.628 138.85 236.7 113.778 236.7 82.8505C236.7 51.9225 211.628 26.8505 180.7 26.8505C149.773 26.8505 124.7 51.9225 124.7 82.8505C124.7 113.778 149.773 138.85 180.7 138.85Z" stroke="#413D51" stroke-width="16" stroke-miterlimit="10" stroke-linecap="round" stroke-linejoin="round"/>
<path d="M225.35 49.0505C223.8 47.0505 222.15 45.1005 220.3 43.2505C198.45 21.4005 163 21.4005 141.1 43.2505C136.75 47.6005 133.3 52.4505 130.7 57.6505C161.7 47.0505 194.15 46.2505 225.35 49.0505Z" fill="#413D51"/>
<path d="M153.45 108.051C165.048 108.051 174.45 98.6485 174.45 87.0505C174.45 75.4525 165.048 66.0505 153.45 66.0505C141.852 66.0505 132.45 75.4525 132.45 87.0505C132.45 98.6485 141.852 108.051 153.45 108.051Z" fill="#413D51"/>
<path d="M141.55 94.2C145.416 94.2 148.55 91.066 148.55 87.2C148.55 83.334 145.416 80.2 141.55 80.2C137.684 80.2 134.55 83.334 134.55 87.2C134.55 91.066 137.684 94.2 141.55 94.2Z" fill="white"/>
<path d="M66.4 26.95L12 25.3C19.85 44.95 20.9 74.5 14.05 106.8C22.75 125.2 41.25 138.25 63 138.9C93.9 139.85 119.75 115.55 120.65 84.6C121.6 53.7 97.3 27.9 66.4 26.95Z" fill="#413D51"/>
<path d="M66.4 26.95L12 25.3C19.85 44.95 20.9 74.5 14.05 106.8C22.75 125.2 41.25 138.25 63 138.9C93.9 139.85 119.75 115.55 120.65 84.6C121.6 53.7 97.3 27.9 66.4 26.95Z" stroke="#413D51" stroke-width="16" stroke-miterlimit="10" stroke-linecap="round" stroke-linejoin="round"/>
<path d="M64.4 138.85C95.328 138.85 120.4 113.778 120.4 82.85C120.4 51.922 95.328 26.85 64.4 26.85C33.472 26.85 8.39999 51.922 8.39999 82.85C8.39999 113.778 33.472 138.85 64.4 138.85Z" fill="#F7E8AD"/>
<path d="M64.4 138.85C95.328 138.85 120.4 113.778 120.4 82.85C120.4 51.922 95.328 26.85 64.4 26.85C33.472 26.85 8.39999 51.922 8.39999 82.85C8.39999 113.778 33.472 138.85 64.4 138.85Z" fill="#F7E8AD"/>
<path d="M24.8 43.25C35.55 32.5 49.65 27.05 63.75 26.85C53.15 28.9 43 34 34.8 42.25C12.95 64.1 12.95 99.55 34.8 121.45C45.9 132.55 60.5 138 75 137.85C57.35 141.25 38.45 136.1 24.8 122.45C2.95001 100.55 2.95001 65.1 24.8 43.25Z" fill="#F7D6A1"/>
<path opacity="0.7" d="M107.453 112.559C123.972 96.04 124.067 69.352 107.665 52.9505C91.2635 36.5485 64.576 36.6435 48.057 53.1625C31.538 69.6815 31.443 96.369 47.845 112.771C64.247 129.173 90.9345 129.078 107.453 112.559Z" fill="white"/>
<path opacity="0.89" d="M17.45 56.3C19 54.3 22 48.8 23.85 46.95C45.85 25.25 81.3 25.45 103 47.5C107.3 51.85 110.75 56.75 113.3 62C82.4 51.15 48.6 53.75 17.45 56.3Z" fill="#EFCA92"/>
<path d="M64.4 138.85C95.328 138.85 120.4 113.778 120.4 82.85C120.4 51.922 95.328 26.85 64.4 26.85C33.472 26.85 8.39999 51.922 8.39999 82.85C8.39999 113.778 33.472 138.85 64.4 138.85Z" stroke="#413D51" stroke-width="16" stroke-miterlimit="10" stroke-linecap="round" stroke-linejoin="round"/>
<path d="M64.4 138.85C95.328 138.85 120.4 113.778 120.4 82.85C120.4 51.922 95.328 26.85 64.4 26.85C33.472 26.85 8.39999 51.922 8.39999 82.85C8.39999 113.778 33.472 138.85 64.4 138.85Z" stroke="#413D51" stroke-width="16" stroke-miterlimit="10" stroke-linecap="round" stroke-linejoin="round"/>
<path d="M19.8 49.05C21.35 47.05 23 45.1 24.85 43.25C46.7 21.4 82.15 21.4 104.05 43.25C108.4 47.6 111.85 52.45 114.45 57.65C83.45 47.05 50.95 46.25 19.8 49.05Z" fill="#413D51"/>
<path d="M91.7 108.05C103.298 108.05 112.7 98.648 112.7 87.05C112.7 75.452 103.298 66.05 91.7 66.05C80.102 66.05 70.7 75.452 70.7 87.05C70.7 98.648 80.102 108.05 91.7 108.05Z" fill="#413D51"/>
<path d="M103.6 94.2C107.466 94.2 110.6 91.066 110.6 87.2C110.6 83.334 107.466 80.2 103.6 80.2C99.734 80.2 96.6 83.334 96.6 87.2C96.6 91.066 99.734 94.2 103.6 94.2Z" fill="white"/>
<path d="M95.95 227.15C91.55 227.15 87.95 223.55 87.95 219.15V210.15C87.95 205.75 91.55 202.15 95.95 202.15C100.35 202.15 103.95 205.75 103.95 210.15V219.15C103.95 223.55 100.4 227.15 95.95 227.15Z" fill="#413D51"/>
<path d="M79.95 227.15C75.55 227.15 71.95 223.55 71.95 219.15V210.15C71.95 205.75 75.55 202.15 79.95 202.15C84.35 202.15 87.95 205.75 87.95 210.15V219.15C87.95 223.55 84.4 227.15 79.95 227.15Z" fill="#413D51"/>
<path d="M111.85 227.15C107.45 227.15 103.85 223.55 103.85 219.15V210.15C103.85 205.75 107.45 202.15 111.85 202.15C116.25 202.15 119.85 205.75 119.85 210.15V219.15C119.85 223.55 116.25 227.15 111.85 227.15Z" fill="#413D51"/>
<path d="M132.95 227.15C128.55 227.15 124.95 223.55 124.95 219.15V210.15C124.95 205.75 128.55 202.15 132.95 202.15C137.35 202.15 140.95 205.75 140.95 210.15V219.15C140.95 223.55 137.35 227.15 132.95 227.15Z" fill="#413D51"/>
<path d="M148.85 227.15C144.45 227.15 140.85 223.55 140.85 219.15V210.15C140.85 205.75 144.45 202.15 148.85 202.15C153.25 202.15 156.85 205.75 156.85 210.15V219.15C156.85 223.55 153.25 227.15 148.85 227.15Z" fill="#413D51"/>
<path d="M164.85 227.15C160.45 227.15 156.85 223.55 156.85 219.15V210.15C156.85 205.75 160.45 202.15 164.85 202.15C169.25 202.15 172.85 205.75 172.85 210.15V219.15C172.85 223.55 169.25 227.15 164.85 227.15Z" fill="#413D51"/>
<path d="M117.95 161.8C117.95 166 114.55 169.4 110.35 169.4C106.15 169.4 102.75 166 102.75 161.8" stroke="#413D51" stroke-width="8" stroke-miterlimit="10" stroke-linecap="round" stroke-linejoin="round"/>
<path d="M141.2 161.8C141.2 166 137.8 169.4 133.6 169.4C129.4 169.4 126 166 126 161.8" stroke="#413D51" stroke-width="8" stroke-miterlimit="10" stroke-linecap="round" stroke-linejoin="round"/>
<path opacity="0.31" d="M33.5 142.4C32.4 144.75 29.65 145.8 27.25 144.7C24.85 143.6 23.85 140.85 24.95 138.45" stroke="#72C8D6" stroke-width="8" stroke-miterlimit="10" stroke-linecap="round" stroke-linejoin="round"/>
<path opacity="0.31" d="M48.4 150.15C47.3 152.5 44.55 153.55 42.15 152.45C39.8 151.35 38.75 148.6 39.85 146.2" stroke="#72C8D6" stroke-width="8" stroke-miterlimit="10" stroke-linecap="round" stroke-linejoin="round"/>
<path opacity="0.31" d="M39.75 156.1C38.65 158.45 35.9 159.5 33.5 158.4C31.15 157.3 30.1 154.55 31.2 152.15" stroke="#72C8D6" stroke-width="8" stroke-miterlimit="10" stroke-linecap="round" stroke-linejoin="round"/>
<path opacity="0.31" d="M52.85 166.05C51.75 168.4 49 169.45 46.6 168.35C44.25 167.25 43.2 164.5 44.3 162.1" stroke="#72C8D6" stroke-width="8" stroke-miterlimit="10" stroke-linecap="round" stroke-linejoin="round"/>
<path opacity="0.31" d="M62.85 157.05C61.75 159.4 59 160.45 56.6 159.35C54.25 158.25 53.2 155.5 54.3 153.1" stroke="#72C8D6" stroke-width="8" stroke-miterlimit="10" stroke-linecap="round" stroke-linejoin="round"/>
<path opacity="0.31" d="M213.85 143.4C214.95 145.75 217.7 146.8 220.1 145.7C222.5 144.6 223.5 141.85 222.4 139.45" stroke="#72C8D6" stroke-width="8" stroke-miterlimit="10" stroke-linecap="round" stroke-linejoin="round"/>
<path opacity="0.31" d="M199 151.15C200.1 153.5 202.85 154.55 205.25 153.45C207.6 152.35 208.65 149.6 207.55 147.2" stroke="#72C8D6" stroke-width="8" stroke-miterlimit="10" stroke-linecap="round" stroke-linejoin="round"/>
<path opacity="0.31" d="M207.6 157.1C208.7 159.45 211.45 160.5 213.85 159.4C216.2 158.3 217.25 155.55 216.15 153.15" stroke="#72C8D6" stroke-width="8" stroke-miterlimit="10" stroke-linecap="round" stroke-linejoin="round"/>
<path opacity="0.31" d="M194.55 167.05C195.65 169.4 198.4 170.45 200.8 169.35C203.15 168.25 204.2 165.5 203.1 163.1" stroke="#72C8D6" stroke-width="8" stroke-miterlimit="10" stroke-linecap="round" stroke-linejoin="round"/>
<path opacity="0.31" d="M184.55 158.05C185.65 160.4 188.4 161.45 190.8 160.35C193.15 159.25 194.2 156.5 193.1 154.1" stroke="#72C8D6" stroke-width="8" stroke-miterlimit="10" stroke-linecap="round" stroke-linejoin="round"/>
<path d="M106.35 180.05C106.35 184.25 102.95 187.65 98.75 187.65C94.55 187.65 91.15 184.25 91.15 180.05" stroke="#413D51" stroke-width="8" stroke-miterlimit="10" stroke-linecap="round" stroke-linejoin="round"/>
<path d="M129.6 180.05C129.6 184.25 126.2 187.65 122 187.65C117.8 187.65 114.4 184.25 114.4 180.05" stroke="#413D51" stroke-width="8" stroke-miterlimit="10" stroke-linecap="round" stroke-linejoin="round"/>
<path d="M152.85 180.05C152.85 184.25 149.45 187.65 145.25 187.65C141.05 187.65 137.65 184.25 137.65 180.05" stroke="#413D51" stroke-width="8" stroke-miterlimit="10" stroke-linecap="round" stroke-linejoin="round"/>
</svg>
